<svg width="15" height="13" viewBox="0 0 15 13" fill="none" xmlns="http://www.w3.org/2000/svg">
<path d="M0.406251 5.28125L5.40625 0.281249C5.59375 0.0937493 5.84375 -7.21238e-07 6.09375 -6.99382e-07C6.375 -6.74795e-07 6.625 0.0937493 6.8125 0.281249C7.21875 0.656249 7.21875 1.3125 6.8125 1.6875L3.53125 5L13.0938 5C13.6563 5 14.0938 5.4375 14.0938 6C14.0938 6.53125 13.6563 7 13.0938 7L3.53125 7L6.8125 10.2812C7.21875 10.6562 7.21875 11.3125 6.8125 11.6875C6.4375 12.0937 5.78125 12.0937 5.40625 11.6875L0.406251 6.6875C1.02175e-06 6.3125 1.07912e-06 5.65625 0.406251 5.28125Z" fill="#9A6BFF"/>
</svg>
