<svg width="15" height="13" viewBox="0 0 15 13" fill="none" xmlns="http://www.w3.org/2000/svg">
<path d="M13.6875 6.8125L8.6875 11.8125C8.5 12 8.25 12.0938 8 12.0938C7.71875 12.0938 7.46875 12 7.28125 11.8125C6.875 11.4375 6.875 10.7812 7.28125 10.4062L10.5625 7.09375L1 7.09375C0.4375 7.09375 0 6.65625 0 6.09375C0 5.5625 0.4375 5.09375 1 5.09375L10.5625 5.09375L7.28125 1.8125C6.875 1.4375 6.875 0.78125 7.28125 0.40625C7.65625 0 8.3125 0 8.6875 0.40625L13.6875 5.40625C14.0938 5.78125 14.0938 6.4375 13.6875 6.8125Z" fill="#9A6BFF"/>
</svg>
