<svg width="24" height="24" viewBox="0 0 24 24" fill="none" xmlns="http://www.w3.org/2000/svg">
<path d="M4.50685 14.257C4.00618 14.8935 3.87912 15.7472 4.17271 16.5019C4.97304 17.8835 8.29943 17.5023 11.999 15.7466" stroke="#F7F7F7" stroke-width="1.5" stroke-linecap="round" stroke-linejoin="round"/>
<path d="M19.4931 9.74309C19.9932 9.10633 20.1202 8.25296 19.8272 7.49816C19.0269 6.11658 15.7005 6.49774 12.001 8.25347" stroke="#F7F7F7" stroke-width="1.5" stroke-linecap="round" stroke-linejoin="round"/>
<path d="M15.2564 13.8728C14.9382 17.9465 13.6007 21.0038 12 21.0038C11.3427 21.0038 10.7315 20.4816 10.2153 19.5922" stroke="#F7F7F7" stroke-width="1.5" stroke-linecap="round" stroke-linejoin="round"/>
<path d="M6.29164 6.66373C5.4878 6.5502 4.68337 6.86696 4.17276 7.49808C3.37242 8.87966 5.36225 11.5618 8.74366 13.8727" stroke="#F7F7F7" stroke-width="1.5" stroke-linecap="round" stroke-linejoin="round"/>
<path d="M17.7084 17.3362C18.5122 17.4497 19.3166 17.133 19.8273 16.5019C20.6276 15.1203 18.6378 12.4382 15.2563 10.1272" stroke="#F7F7F7" stroke-width="1.5" stroke-linecap="round" stroke-linejoin="round"/>
<path d="M8.74365 10.1272C9.06178 6.05349 10.3993 2.99622 12 2.99622C12.6573 2.99622 13.2685 3.51843 13.7848 4.4078" stroke="#F7F7F7" stroke-width="1.5" stroke-linecap="round" stroke-linejoin="round"/>
</svg>
