<svg width="40" height="40" viewBox="0 0 40 40" fill="none" xmlns="http://www.w3.org/2000/svg">
<path d="M26.8082 18.8346C27.7746 18.8346 28.5581 18.0511 28.5581 17.0847C28.5581 16.1183 27.7746 15.3348 26.8082 15.3348C25.8418 15.3348 25.0583 16.1183 25.0583 17.0847C25.0583 18.0511 25.8418 18.8346 26.8082 18.8346Z" fill="#030E15"/>
<path d="M20.9753 15.3348C21.9418 15.3348 22.7252 14.5514 22.7252 13.585C22.7252 12.6186 21.9418 11.8351 20.9753 11.8351C20.0089 11.8351 19.2255 12.6186 19.2255 13.585C19.2255 14.5514 20.0089 15.3348 20.9753 15.3348Z" fill="#030E15"/>
<path d="M15.1423 18.8346C16.1087 18.8346 16.8922 18.0511 16.8922 17.0847C16.8922 16.1183 16.1087 15.3348 15.1423 15.3348C14.1759 15.3348 13.3924 16.1183 13.3924 17.0847C13.3924 18.0511 14.1759 18.8346 15.1423 18.8346Z" fill="#030E15"/>
<path d="M15.1423 25.834C16.1087 25.834 16.8922 25.0506 16.8922 24.0841C16.8922 23.1177 16.1087 22.3343 15.1423 22.3343C14.1759 22.3343 13.3924 23.1177 13.3924 24.0841C13.3924 25.0506 14.1759 25.834 15.1423 25.834Z" fill="#030E15"/>
<path d="M20.4888 34C17.6998 33.9997 14.9745 33.1664 12.6623 31.6069C10.3501 30.0474 8.55642 27.8328 7.51129 25.247C6.46616 22.6613 6.21722 19.8223 6.79639 17.0941C7.37555 14.3659 8.75643 11.8729 10.7619 9.93477C12.1091 8.62204 13.7093 7.59716 15.4651 6.92251C17.221 6.24785 19.0957 5.93752 20.9753 6.01041C24.5272 6.1762 27.8872 7.67043 30.3893 10.1969C32.8914 12.7234 34.3529 16.0978 34.4842 19.6512C34.5317 21.4632 34.2246 23.2671 33.5801 24.9614C33.4489 25.3066 33.2331 25.6132 32.9524 25.8532C32.6717 26.0931 32.3351 26.2586 31.9737 26.3344C31.6064 26.4154 31.2246 26.4021 30.8638 26.2958C30.503 26.1895 30.1749 25.9938 29.9101 25.7267L29.7934 25.61C29.2093 25.0259 28.4646 24.6289 27.6541 24.4696C26.8436 24.3102 26.0039 24.3956 25.2422 24.715C24.4804 25.0344 23.8309 25.5733 23.3764 26.2631C22.922 26.9529 22.6831 27.7623 22.6901 28.5883L22.7368 33.8565L21.6589 33.9463C21.2704 33.9743 20.8831 34 20.4888 34ZM20.4888 8.33539C17.3949 8.32147 14.4221 9.53718 12.2245 11.7151C10.0269 13.893 8.78452 16.8547 8.7706 19.9486C8.75668 23.0426 9.97239 26.0153 12.1503 28.2129C14.3282 30.4105 17.2899 31.6529 20.3838 31.6669L20.3558 28.6046C20.3506 27.7425 20.516 26.8879 20.8425 26.09C21.1691 25.2922 21.6503 24.5668 22.2585 23.9558C23.4768 22.7391 25.1283 22.0557 26.8501 22.0557C28.572 22.0557 30.2234 22.7391 31.4418 23.9558L31.4581 23.9721C31.9558 22.6072 32.1913 21.1606 32.1522 19.7083C32.0432 16.7482 30.8261 13.937 28.7421 11.8319C26.6582 9.72681 23.8595 8.48137 20.9006 8.34239C20.7618 8.33539 20.6253 8.33539 20.4877 8.33539H20.4888Z" fill="#030E15"/>
</svg>
