<svg width="14" height="14" viewBox="0 0 14 14" fill="none" xmlns="http://www.w3.org/2000/svg">
<path d="M0 0H14V14H0V0ZM7.59375 10.9375V6.4375H6.28125V10.9062C6.28125 11.5625 6 11.75 5.59375 11.75C5.125 11.75 4.9375 11.4375 4.75 11.0625L3.65625 11.7188C3.96875 12.375 4.59375 12.9062 5.625 12.9062C6.8125 12.9062 7.59375 12.2812 7.59375 10.9375ZM10.7188 12.9062C11.9688 12.9062 12.9062 12.2812 12.9062 11.0938C12.9062 10 12.2812 9.5 11.1562 9.03125L10.8125 8.875C10.25 8.625 10 8.46875 10 8.0625C10 7.75 10.25 7.5 10.625 7.5C11.0312 7.5 11.25 7.6875 11.5 8.0625L12.5 7.40625C12.0938 6.65625 11.4688 6.375 10.6562 6.375C9.46875 6.375 8.71875 7.125 8.71875 8.09375C8.71875 9.1875 9.34375 9.6875 10.2812 10.0938L10.625 10.2188C11.2188 10.5 11.5938 10.6562 11.5938 11.0938C11.5938 11.4688 11.2188 11.75 10.6875 11.75C10.0312 11.75 9.6875 11.4062 9.40625 10.9688L8.3125 11.5625C8.71875 12.3438 9.5 12.9062 10.7188 12.9062Z" fill="white"/>
</svg>
