<svg width="40" height="40" viewBox="0 0 40 40" fill="none" xmlns="http://www.w3.org/2000/svg">
<path d="M28.1667 7H11.8333C10.2868 7.00188 8.80415 7.62504 7.71059 8.73281C6.61703 9.84057 6.00185 11.3425 6 12.9091L6 27.0909C6.00185 28.6575 6.61703 30.1594 7.71059 31.2672C8.80415 32.375 10.2868 32.9981 11.8333 33H28.1667C29.7132 32.9981 31.1959 32.375 32.2894 31.2672C33.383 30.1594 33.9981 28.6575 34 27.0909V12.9091C33.9981 11.3425 33.383 9.84057 32.2894 8.73281C31.1959 7.62504 29.7132 7.00188 28.1667 7ZM11.8333 9.36364H28.1667C29.0949 9.36364 29.9852 9.73717 30.6415 10.4021C31.2979 11.067 31.6667 11.9688 31.6667 12.9091V14.0909H8.33333V12.9091C8.33333 11.9688 8.70208 11.067 9.35846 10.4021C10.0148 9.73717 10.9051 9.36364 11.8333 9.36364ZM28.1667 30.6364H11.8333C10.9051 30.6364 10.0148 30.2628 9.35846 29.5979C8.70208 28.933 8.33333 28.0312 8.33333 27.0909V16.4545H31.6667V27.0909C31.6667 28.0312 31.2979 28.933 30.6415 29.5979C29.9852 30.2628 29.0949 30.6364 28.1667 30.6364ZM28.1667 21.1818C28.1667 21.4953 28.0438 21.7959 27.825 22.0175C27.6062 22.2391 27.3094 22.3636 27 22.3636H13C12.6906 22.3636 12.3938 22.2391 12.175 22.0175C11.9563 21.7959 11.8333 21.4953 11.8333 21.1818C11.8333 20.8684 11.9563 20.5678 12.175 20.3461C12.3938 20.1245 12.6906 20 13 20H27C27.3094 20 27.6062 20.1245 27.825 20.3461C28.0438 20.5678 28.1667 20.8684 28.1667 21.1818ZM23.5 25.9091C23.5 26.2225 23.3771 26.5231 23.1583 26.7448C22.9395 26.9664 22.6428 27.0909 22.3333 27.0909H13C12.6906 27.0909 12.3938 26.9664 12.175 26.7448C11.9563 26.5231 11.8333 26.2225 11.8333 25.9091C11.8333 25.5957 11.9563 25.2951 12.175 25.0734C12.3938 24.8518 12.6906 24.7273 13 24.7273H22.3333C22.6428 24.7273 22.9395 24.8518 23.1583 25.0734C23.3771 25.2951 23.5 25.5957 23.5 25.9091ZM9.5 11.7273C9.5 11.4935 9.56842 11.265 9.69662 11.0707C9.82481 10.8763 10.007 10.7249 10.2202 10.6354C10.4334 10.546 10.668 10.5226 10.8943 10.5682C11.1206 10.6138 11.3285 10.7263 11.4916 10.8916C11.6548 11.0569 11.7659 11.2675 11.8109 11.4967C11.8559 11.726 11.8328 11.9636 11.7445 12.1795C11.6562 12.3955 11.5067 12.5801 11.3148 12.7099C11.123 12.8398 10.8974 12.9091 10.6667 12.9091C10.3572 12.9091 10.0605 12.7846 9.84171 12.5629C9.62292 12.3413 9.5 12.0407 9.5 11.7273ZM13 11.7273C13 11.4935 13.0684 11.265 13.1966 11.0707C13.3248 10.8763 13.507 10.7249 13.7202 10.6354C13.9334 10.546 14.168 10.5226 14.3943 10.5682C14.6206 10.6138 14.8285 10.7263 14.9916 10.8916C15.1548 11.0569 15.2659 11.2675 15.3109 11.4967C15.3559 11.726 15.3328 11.9636 15.2445 12.1795C15.1562 12.3955 15.0067 12.5801 14.8148 12.7099C14.623 12.8398 14.3974 12.9091 14.1667 12.9091C13.8572 12.9091 13.5605 12.7846 13.3417 12.5629C13.1229 12.3413 13 12.0407 13 11.7273ZM16.5 11.7273C16.5 11.4935 16.5684 11.265 16.6966 11.0707C16.8248 10.8763 17.007 10.7249 17.2202 10.6354C17.4334 10.546 17.668 10.5226 17.8943 10.5682C18.1206 10.6138 18.3285 10.7263 18.4916 10.8916C18.6548 11.0569 18.7659 11.2675 18.8109 11.4967C18.8559 11.726 18.8328 11.9636 18.7445 12.1795C18.6562 12.3955 18.5067 12.5801 18.3148 12.7099C18.123 12.8398 17.8974 12.9091 17.6667 12.9091C17.3572 12.9091 17.0605 12.7846 16.8417 12.5629C16.6229 12.3413 16.5 12.0407 16.5 11.7273Z" fill="#030E15"/>
</svg>
