<svg width="40" height="40" viewBox="0 0 40 40" fill="none" xmlns="http://www.w3.org/2000/svg">
<path d="M28.1667 6H11.8333C10.2868 6.00185 8.80415 6.61703 7.71059 7.71059C6.61703 8.80415 6.00185 10.2868 6 11.8333L6 28.1667C6.00185 29.7132 6.61703 31.1959 7.71059 32.2894C8.80415 33.383 10.2868 33.9981 11.8333 34H28.1667C29.7132 33.9981 31.1959 33.383 32.2894 32.2894C33.383 31.1959 33.9981 29.7132 34 28.1667V11.8333C33.9981 10.2868 33.383 8.80415 32.2894 7.71059C31.1959 6.61703 29.7132 6.00185 28.1667 6ZM29.3333 18.8333H31.6667V21.1667H29.3333V18.8333ZM29.3333 16.5V14.1667H31.6667V16.5H29.3333ZM27 18.8333H13V8.33333H27V18.8333ZM10.6667 21.1667H8.33333V18.8333H10.6667V21.1667ZM10.6667 16.5H8.33333V14.1667H10.6667V16.5ZM8.33333 23.5H10.6667V25.8333H8.33333V23.5ZM13 21.1667H27V31.6667H13V21.1667ZM29.3333 23.5H31.6667V25.8333H29.3333V23.5ZM31.6667 11.8333H29.3333V8.548C30.0134 8.78843 30.6026 9.2331 31.0202 9.82118C31.4379 10.4093 31.6637 11.112 31.6667 11.8333ZM10.6667 8.548V11.8333H8.33333C8.33632 11.112 8.5621 10.4093 8.97977 9.82118C9.39744 9.2331 9.98661 8.78843 10.6667 8.548ZM8.33333 28.1667H10.6667V31.452C9.98661 31.2116 9.39744 30.7669 8.97977 30.1788C8.5621 29.5907 8.33632 28.888 8.33333 28.1667ZM29.3333 31.452V28.1667H31.6667C31.6637 28.888 31.4379 29.5907 31.0202 30.1788C30.6026 30.7669 30.0134 31.2116 29.3333 31.452Z" fill="#030E15"/>
</svg>
