<svg width="40" height="40" viewBox="0 0 40 40" fill="none" xmlns="http://www.w3.org/2000/svg">
<path d="M32.4746 13.6737C34.0711 12.0749 34.0711 9.47693 32.4746 7.88153C30.8781 6.28278 28.2768 6.28278 26.6813 7.88153L14.4708 20.0899C12.7861 19.9972 11.0712 20.5934 9.78616 21.8773C8.11037 23.5542 7.16363 28.2868 6.89791 30.5532C6.80413 31.3492 7.07431 32.1296 7.63923 32.6946C8.12935 33.1858 8.78359 33.4549 9.47021 33.4549C9.57404 33.4549 9.67787 33.4482 9.78058 33.4359C10.0496 33.4046 16.41 32.6343 18.4766 30.5677C19.7605 29.2838 20.3556 27.5689 20.2629 25.8842L32.4746 13.6737ZM16.8968 28.988C15.9434 29.9414 12.325 30.887 9.51821 31.2175C9.36749 31.2409 9.26366 31.1617 9.21677 31.1148C9.171 31.069 9.0962 30.9685 9.11406 30.8122C9.4423 28.0189 10.4248 24.396 11.3648 23.4548C12.1285 22.6923 13.1288 22.3116 14.1314 22.3116C15.1339 22.3116 16.1343 22.6934 16.8979 23.4548C18.423 24.9799 18.423 27.4618 16.8979 28.9868L16.8968 28.988ZM18.4755 21.8773C18.0166 21.4184 17.5019 21.0467 16.9537 20.7642L28.2589 9.45907C28.9846 8.73338 30.1691 8.73338 30.8948 9.45907C31.6205 10.1848 31.6205 11.3671 30.8948 12.0939L19.5886 23.399C19.305 22.8508 18.9343 22.3362 18.4755 21.8773Z" fill="#030E15"/>
<path d="M12.1507 17.7442C12.3685 17.9619 12.6543 18.0713 12.9401 18.0713C13.2259 18.0713 13.5117 17.9619 13.7294 17.7442C14.1659 17.3077 14.1659 16.6021 13.7294 16.1656L9.65884 12.095C8.93203 11.3682 8.93203 10.1859 9.65884 9.45908C10.3856 8.73339 11.5691 8.73339 12.2936 9.45908L16.3642 13.5308C16.8007 13.9673 17.5063 13.9673 17.9429 13.5308C18.3794 13.0942 18.3794 12.3886 17.9429 11.9521L13.8723 7.88042C12.2736 6.2839 9.67558 6.2839 8.07906 7.8793C6.48255 9.47471 6.48143 12.076 8.07906 13.6725L12.1496 17.7431L12.1507 17.7442Z" fill="#030E15"/>
<path d="M31.711 25.7201L28.4119 22.4199C27.9754 21.9834 27.2698 21.9834 26.8332 22.4199C26.3967 22.8564 26.3967 23.562 26.8332 23.9986L30.1323 27.2988C30.9641 28.1294 31.4408 29.2793 31.4408 30.4561V31.2421H30.656C29.4625 31.2421 28.3404 30.7776 27.4975 29.9336L24.1973 26.6345C23.7608 26.198 23.0552 26.198 22.6187 26.6345C22.1821 27.071 22.1821 27.7766 22.6187 28.2131L25.9189 31.5122C27.1827 32.7783 28.8663 33.475 30.656 33.475H32.5573C33.1747 33.475 33.6737 32.9759 33.6737 32.3585V30.4561C33.6737 28.6921 32.9581 26.965 31.711 25.7201Z" fill="#030E15"/>
</svg>
