<svg width="24" height="24" viewBox="0 0 24 24" fill="none" xmlns="http://www.w3.org/2000/svg">
<path d="M19.75 15.222V12.1663C19.7497 11.14 19.4983 10.1268 19.0143 9.20136C18.5303 8.27591 17.826 7.46177 16.9533 6.81888H19.1475C19.3322 7.10734 19.6154 7.33196 19.9534 7.45796C20.2914 7.58396 20.6653 7.60431 21.0172 7.51587C21.369 7.42742 21.6793 7.23512 21.8999 6.96871C22.1206 6.70231 22.2392 6.37667 22.2376 6.0422C22.2359 5.70773 22.1141 5.38308 21.8909 5.11851C21.6676 4.85393 21.3555 4.66419 21.0027 4.57866C20.65 4.49312 20.2764 4.51656 19.9396 4.64534C19.6029 4.77412 19.3218 5.00106 19.14 5.29104H15.465C15.2831 4.63592 14.8683 4.05502 14.2861 3.64013C13.7039 3.22524 12.9874 3 12.25 3C11.5126 3 10.7961 3.22524 10.2139 3.64013C9.63171 4.05502 9.21689 4.63592 9.035 5.29104H5.3525C5.16782 5.00258 4.88456 4.77796 4.54658 4.65196C4.20859 4.52596 3.83472 4.50561 3.48283 4.59405C3.13095 4.6825 2.82069 4.8748 2.60007 5.14121C2.37944 5.40761 2.26077 5.73325 2.26241 6.06772C2.26405 6.40219 2.38592 6.72684 2.60915 6.99141C2.83238 7.25599 3.14452 7.44573 3.49725 7.53126C3.84999 7.6168 4.22364 7.59336 4.56038 7.46458C4.89712 7.3358 5.17816 7.10886 5.36 6.81888H7.54667C6.67396 7.46177 5.96968 8.27591 5.48568 9.20136C5.00167 10.1268 4.75028 11.14 4.75 12.1663V15.222C4.08696 15.222 3.45107 15.4634 2.98223 15.8932C2.51339 16.323 2.25 16.9059 2.25 17.5137L2.25 19.0416C2.25 19.6494 2.51339 20.2323 2.98223 20.6621C3.45107 21.0919 4.08696 21.3333 4.75 21.3333H6.41667C7.07971 21.3333 7.71559 21.0919 8.18443 20.6621C8.65327 20.2323 8.91667 19.6494 8.91667 19.0416V17.5137C8.91667 16.9059 8.65327 16.323 8.18443 15.8932C7.71559 15.4634 7.07971 15.222 6.41667 15.222V12.1663C6.41802 11.2257 6.69001 10.3021 7.20517 9.4886C7.72034 8.67513 8.46045 8.00062 9.35083 7.53314C9.63495 8.01057 10.0541 8.40902 10.5643 8.68663C11.0744 8.96423 11.6567 9.11073 12.25 9.11073C12.8433 9.11073 13.4256 8.96423 13.9357 8.68663C14.4459 8.40902 14.8651 8.01057 15.1492 7.53314C16.0395 8.00062 16.7797 8.67513 17.2948 9.4886C17.81 10.3021 18.082 11.2257 18.0833 12.1663V15.222C17.4203 15.222 16.7844 15.4634 16.3156 15.8932C15.8467 16.323 15.5833 16.9059 15.5833 17.5137V19.0416C15.5833 19.6494 15.8467 20.2323 16.3156 20.6621C16.7844 21.0919 17.4203 21.3333 18.0833 21.3333H19.75C20.413 21.3333 21.0489 21.0919 21.5178 20.6621C21.9866 20.2323 22.25 19.6494 22.25 19.0416V17.5137C22.25 16.9059 21.9866 16.323 21.5178 15.8932C21.0489 15.4634 20.413 15.222 19.75 15.222ZM7.25 17.5137V19.0416C7.25 19.2442 7.1622 19.4385 7.00592 19.5818C6.84964 19.725 6.63768 19.8055 6.41667 19.8055H4.75C4.52899 19.8055 4.31702 19.725 4.16074 19.5818C4.00446 19.4385 3.91667 19.2442 3.91667 19.0416V17.5137C3.91667 17.3111 4.00446 17.1168 4.16074 16.9736C4.31702 16.8303 4.52899 16.7498 4.75 16.7498H6.41667C6.63768 16.7498 6.84964 16.8303 7.00592 16.9736C7.1622 17.1168 7.25 17.3111 7.25 17.5137ZM12.25 7.5828C11.9204 7.5828 11.5981 7.49319 11.324 7.32531C11.05 7.15743 10.8363 6.91881 10.7102 6.63964C10.5841 6.36046 10.551 6.05327 10.6154 5.75689C10.6797 5.46052 10.8384 5.18829 11.0715 4.97462C11.3046 4.76094 11.6015 4.61543 11.9248 4.55648C12.2482 4.49753 12.5833 4.52778 12.8878 4.64342C13.1923 4.75906 13.4526 4.95489 13.6358 5.20614C13.8189 5.45739 13.9167 5.75278 13.9167 6.05496C13.9167 6.46017 13.7411 6.84878 13.4285 7.1353C13.116 7.42183 12.692 7.5828 12.25 7.5828ZM20.5833 19.0416C20.5833 19.2442 20.4955 19.4385 20.3393 19.5818C20.183 19.725 19.971 19.8055 19.75 19.8055H18.0833C17.8623 19.8055 17.6504 19.725 17.4941 19.5818C17.3378 19.4385 17.25 19.2442 17.25 19.0416V17.5137C17.25 17.3111 17.3378 17.1168 17.4941 16.9736C17.6504 16.8303 17.8623 16.7498 18.0833 16.7498H19.75C19.971 16.7498 20.183 16.8303 20.3393 16.9736C20.4955 17.1168 20.5833 17.3111 20.5833 17.5137V19.0416Z" fill="white"/>
</svg>
