<svg width="40" height="40" viewBox="0 0 40 40" fill="none" xmlns="http://www.w3.org/2000/svg">
<path d="M34 27V28.1667C33.9981 29.7132 33.383 31.1959 32.2894 32.2894C31.1959 33.383 29.7132 33.9981 28.1667 34H27C26.6906 34 26.3938 33.8771 26.175 33.6583C25.9562 33.4395 25.8333 33.1428 25.8333 32.8333C25.8333 32.5239 25.9562 32.2272 26.175 32.0084C26.3938 31.7896 26.6906 31.6667 27 31.6667H28.1667C29.0949 31.6667 29.9852 31.2979 30.6415 30.6415C31.2979 29.9852 31.6667 29.0949 31.6667 28.1667V27C31.6667 26.6906 31.7896 26.3938 32.0084 26.175C32.2272 25.9562 32.5239 25.8333 32.8333 25.8333C33.1428 25.8333 33.4395 25.9562 33.6583 26.175C33.8771 26.3938 34 26.6906 34 27ZM28.1667 6H27C26.6906 6 26.3938 6.12292 26.175 6.34171C25.9562 6.5605 25.8333 6.85725 25.8333 7.16667C25.8333 7.47609 25.9562 7.77283 26.175 7.99162C26.3938 8.21042 26.6906 8.33333 27 8.33333H28.1667C29.0949 8.33333 29.9852 8.70208 30.6415 9.35846C31.2979 10.0148 31.6667 10.9051 31.6667 11.8333V13C31.6667 13.3094 31.7896 13.6062 32.0084 13.825C32.2272 14.0437 32.5239 14.1667 32.8333 14.1667C33.1428 14.1667 33.4395 14.0437 33.6583 13.825C33.8771 13.6062 34 13.3094 34 13V11.8333C33.9981 10.2868 33.383 8.80415 32.2894 7.71059C31.1959 6.61703 29.7132 6.00185 28.1667 6ZM32.8333 16.5C32.5239 16.5 32.2272 16.6229 32.0084 16.8417C31.7896 17.0605 31.6667 17.3572 31.6667 17.6667V22.3333C31.6667 22.6428 31.7896 22.9395 32.0084 23.1583C32.2272 23.3771 32.5239 23.5 32.8333 23.5C33.1428 23.5 33.4395 23.3771 33.6583 23.1583C33.8771 22.9395 34 22.6428 34 22.3333V17.6667C34 17.3572 33.8771 17.0605 33.6583 16.8417C33.4395 16.6229 33.1428 16.5 32.8333 16.5ZM13 31.6667H11.8333C10.9051 31.6667 10.0148 31.2979 9.35846 30.6415C8.70208 29.9852 8.33333 29.0949 8.33333 28.1667V27C8.33333 26.6906 8.21042 26.3938 7.99162 26.175C7.77283 25.9562 7.47609 25.8333 7.16667 25.8333C6.85725 25.8333 6.5605 25.9562 6.34171 26.175C6.12292 26.3938 6 26.6906 6 27V28.1667C6.00185 29.7132 6.61703 31.1959 7.71059 32.2894C8.80415 33.383 10.2868 33.9981 11.8333 34H13C13.3094 34 13.6062 33.8771 13.825 33.6583C14.0437 33.4395 14.1667 33.1428 14.1667 32.8333C14.1667 32.5239 14.0437 32.2272 13.825 32.0084C13.6062 31.7896 13.3094 31.6667 13 31.6667ZM13 6H11.8333C10.2868 6.00185 8.80415 6.61703 7.71059 7.71059C6.61703 8.80415 6.00185 10.2868 6 11.8333L6 13C6 13.3094 6.12292 13.6062 6.34171 13.825C6.5605 14.0437 6.85725 14.1667 7.16667 14.1667C7.47609 14.1667 7.77283 14.0437 7.99162 13.825C8.21042 13.6062 8.33333 13.3094 8.33333 13V11.8333C8.33333 10.9051 8.70208 10.0148 9.35846 9.35846C10.0148 8.70208 10.9051 8.33333 11.8333 8.33333H13C13.3094 8.33333 13.6062 8.21042 13.825 7.99162C14.0437 7.77283 14.1667 7.47609 14.1667 7.16667C14.1667 6.85725 14.0437 6.5605 13.825 6.34171C13.6062 6.12292 13.3094 6 13 6ZM7.16667 23.5C7.47609 23.5 7.77283 23.3771 7.99162 23.1583C8.21042 22.9395 8.33333 22.6428 8.33333 22.3333V17.6667C8.33333 17.3572 8.21042 17.0605 7.99162 16.8417C7.77283 16.6229 7.47609 16.5 7.16667 16.5C6.85725 16.5 6.5605 16.6229 6.34171 16.8417C6.12292 17.0605 6 17.3572 6 17.6667V22.3333C6 22.6428 6.12292 22.9395 6.34171 23.1583C6.5605 23.3771 6.85725 23.5 7.16667 23.5ZM17.6667 8.33333H22.254C22.5634 8.33333 22.8602 8.21042 23.079 7.99162C23.2978 7.77283 23.4207 7.47609 23.4207 7.16667C23.4207 6.85725 23.2978 6.5605 23.079 6.34171C22.8602 6.12292 22.5634 6 22.254 6H17.6667C17.3572 6 17.0605 6.12292 16.8417 6.34171C16.6229 6.5605 16.5 6.85725 16.5 7.16667C16.5 7.47609 16.6229 7.77283 16.8417 7.99162C17.0605 8.21042 17.3572 8.33333 17.6667 8.33333ZM22.3333 31.6667H17.6667C17.3572 31.6667 17.0605 31.7896 16.8417 32.0084C16.6229 32.2272 16.5 32.5239 16.5 32.8333C16.5 33.1428 16.6229 33.4395 16.8417 33.6583C17.0605 33.8771 17.3572 34 17.6667 34H22.3333C22.6428 34 22.9395 33.8771 23.1583 33.6583C23.3771 33.4395 23.5 33.1428 23.5 32.8333C23.5 32.5239 23.3771 32.2272 23.1583 32.0084C22.9395 31.7896 22.6428 31.6667 22.3333 31.6667Z" fill="#030E15"/>
</svg>
