<svg width="24" height="24" viewBox="0 0 24 24" fill="none" xmlns="http://www.w3.org/2000/svg">
<path d="M18.0833 2H6.41667C5.312 2.00132 4.25296 2.44073 3.47185 3.22185C2.69073 4.00296 2.25132 5.062 2.25 6.16667L2.25 17.8333C2.25132 18.938 2.69073 19.997 3.47185 20.7782C4.25296 21.5593 5.312 21.9987 6.41667 22H18.0833C19.188 21.9987 20.247 21.5593 21.0282 20.7782C21.8093 19.997 22.2487 18.938 22.25 17.8333V6.16667C22.2487 5.062 21.8093 4.00296 21.0282 3.22185C20.247 2.44073 19.188 2.00132 18.0833 2ZM18.9167 11.1667H20.5833V12.8333H18.9167V11.1667ZM18.9167 9.5V7.83333H20.5833V9.5H18.9167ZM17.25 11.1667H7.25V3.66667H17.25V11.1667ZM5.58333 12.8333H3.91667V11.1667H5.58333V12.8333ZM5.58333 9.5H3.91667V7.83333H5.58333V9.5ZM3.91667 14.5H5.58333V16.1667H3.91667V14.5ZM7.25 12.8333H17.25V20.3333H7.25V12.8333ZM18.9167 14.5H20.5833V16.1667H18.9167V14.5ZM20.5833 6.16667H18.9167V3.82C19.4024 3.99174 19.8233 4.30936 20.1216 4.72942C20.4199 5.14948 20.5812 5.65145 20.5833 6.16667ZM5.58333 3.82V6.16667H3.91667C3.9188 5.65145 4.08007 5.14948 4.37841 4.72942C4.67674 4.30936 5.09758 3.99174 5.58333 3.82ZM3.91667 17.8333H5.58333V20.18C5.09758 20.0083 4.67674 19.6906 4.37841 19.2706C4.08007 18.8505 3.9188 18.3485 3.91667 17.8333ZM18.9167 20.18V17.8333H20.5833C20.5812 18.3485 20.4199 18.8505 20.1216 19.2706C19.8233 19.6906 19.4024 20.0083 18.9167 20.18Z" fill="white"/>
</svg>
