<svg width="40" height="40" viewBox="0 0 40 40" fill="none" xmlns="http://www.w3.org/2000/svg">
<path d="M27.1412 15.1297C28.5062 16.5125 28.5062 18.7603 27.1412 20.143L24.1277 23.1968C23.9002 23.4273 23.6015 23.5431 23.3028 23.5431C23.0042 23.5431 22.7055 23.4273 22.478 23.1968C22.0218 22.7347 22.0218 21.9878 22.478 21.5257L25.4915 18.4719C25.9465 18.011 25.9465 17.2617 25.4915 16.8008L22.478 13.747C22.0218 13.2849 22.0218 12.538 22.478 12.0759C22.9342 11.6138 23.6715 11.6138 24.1277 12.0759L27.1412 15.1297ZM17.522 13.747C17.9782 13.2849 17.9782 12.538 17.522 12.0759C17.0658 11.6138 16.3285 11.6138 15.8723 12.0759L12.8588 15.1297C11.4938 16.5125 11.4938 18.7603 12.8588 20.143L15.8723 23.1968C16.0998 23.4273 16.3985 23.5431 16.6972 23.5431C16.9958 23.5431 17.2945 23.4273 17.522 23.1968C17.9782 22.7347 17.9782 21.9878 17.522 21.5257L14.5085 18.4719C14.0535 18.011 14.0535 17.2617 14.5085 16.8008L17.522 13.747ZM34 12.9091V22.3636C34 25.6219 31.3832 28.2727 28.1667 28.2727H21.1667V30.6364H25.8333C26.4773 30.6364 27 31.1646 27 31.8182C27 32.4717 26.4773 33 25.8333 33H14.1667C13.5227 33 13 32.4717 13 31.8182C13 31.1646 13.5227 30.6364 14.1667 30.6364H18.8333V28.2727H11.8333C8.61683 28.2727 6 25.6219 6 22.3636V12.9091C6 9.65082 8.61683 7 11.8333 7H28.1667C31.3832 7 34 9.65082 34 12.9091ZM31.6667 12.9091C31.6667 10.9544 30.0963 9.36364 28.1667 9.36364H11.8333C9.90367 9.36364 8.33333 10.9544 8.33333 12.9091V22.3636C8.33333 24.3184 9.90367 25.9091 11.8333 25.9091H28.1667C30.0963 25.9091 31.6667 24.3184 31.6667 22.3636V12.9091Z" fill="#030E15"/>
</svg>
