<svg width="220" height="34" viewBox="0 0 220 34" fill="none" xmlns="http://www.w3.org/2000/svg">
<path d="M33.619 21.1447H15.7644V3.18945H4.91619V29.9778H33.619V21.1447Z" fill="#F6F6F6"/>
<path d="M49.4934 3.18945V16.894C49.4934 17.7479 49.5763 18.4773 49.7406 19.0823C49.9049 19.6873 50.1935 20.1835 50.6064 20.5683C51.0193 20.9544 51.5679 21.2291 52.2551 21.3935C52.9423 21.558 53.8081 21.641 54.8525 21.641C55.8969 21.641 56.7698 21.5523 57.4713 21.3721C58.1728 21.1933 58.7286 20.9187 59.1415 20.5468C59.5544 20.175 59.8487 19.6873 60.0287 19.0808C60.2073 18.4758 60.2973 17.7464 60.2973 16.8926V3.18945H73.3686V19.5771C73.3686 20.8715 73.1143 22.1573 72.6056 23.4359C72.097 24.716 71.1627 25.8716 69.8025 26.9028C68.4424 27.934 66.5722 28.775 64.1948 29.42C61.8175 30.0665 58.7443 30.3897 54.9796 30.3897C51.215 30.3897 48.2033 30.0665 45.7845 29.42C43.3657 28.7736 41.4483 27.934 40.0325 26.9028C38.6166 25.8702 37.6337 24.7145 37.0836 23.4359C36.5336 22.1558 36.2592 20.8701 36.2592 19.5771V3.18945H49.4948H49.4934Z" fill="#F6F6F6"/>
<path d="M90.3559 20.295H77.1189V29.9763H90.3559V20.295Z" fill="#F6F6F6"/>
<path d="M125.692 3.18945V29.9778H112.455V18.2155L101.406 28.5333L90.3559 18.2155L77.1189 5.85542V3.18945H89.6959L101.406 15.4838L113.115 3.18945H125.692Z" fill="#F6F6F6"/>
<path d="M158.02 3.18945L143.298 22.0901V30.0193L156.535 29.9778V22.0486L172.204 3.18945H158.02Z" fill="#F6F6F6"/>
<path d="M148.899 11.093H134.495L128.167 3.18945H142.31L148.899 11.093Z" fill="#F6F6F6"/>
<path d="M215.045 29.9778H198.675L186.882 14.6643V29.9778H173.728V3.18945H190.18L201.767 18.8334V3.18945H215.044V29.9793L215.045 29.9778Z" fill="#F6F6F6"/>
<path d="M108.602 4.09619L101.406 11.6521L94.2092 4.09619H108.602Z" fill="#7065FF"/>
</svg>
